<svg id="Capa_1" enable-background="new 0 0 512 512" height="512" viewBox="0 0 512 512" width="512" xmlns="http://www.w3.org/2000/svg"><g id="XMLID_111_"><g id="XMLID_738_"><g id="XMLID_740_"><g id="XMLID_298_"><path id="XMLID_353_" d="m463.491 296.702h-414.982c-8.284 0-15-6.716-15-15v-137.192c0-35.411 28.809-64.22 64.22-64.22h316.543c35.411 0 64.22 28.809 64.22 64.22v137.192c-.001 8.284-6.717 15-15.001 15z" fill="#3198e8"/></g><g id="XMLID_355_"><path id="XMLID_335_" d="m414.271 80.29h-158.271v216.412h207.491c8.284 0 15-6.716 15-15v-137.192c0-35.411-28.809-64.22-64.22-64.22z" fill="#2681ff"/></g><g id="XMLID_348_"><g id="XMLID_349_"><path id="XMLID_265_" d="m403.901 320.862h-295.802c-8.284 0-15 6.716-15 15v54.227c0 8.284 6.716 15 15 15h295.802c8.284 0 15-6.716 15-15v-54.227c0-8.284-6.716-15-15-15z" fill="#3198e8"/><g id="XMLID_354_"><path id="XMLID_234_" d="m76.736 375.089c-8.284 0-15 6.716-15 15v26.621c0 8.284 6.716 15 15 15s15-6.716 15-15v-26.621c0-8.284-6.716-15-15-15z" fill="#07485e"/><path id="XMLID_226_" d="m435.264 375.089c-8.284 0-15 6.716-15 15v26.621c0 8.284 6.716 15 15 15s15-6.716 15-15v-26.621c0-8.284-6.715-15-15-15z" fill="#04303e"/></g><g id="XMLID_352_"><g id="XMLID_195_"><ellipse id="XMLID_319_" cx="158.94" cy="211.63" fill="#07485e" rx="14.856" ry="14.789"/></g><g id="XMLID_194_"><ellipse id="XMLID_311_" cx="255.01" cy="211.63" fill="#07485e" rx="14.856" ry="14.789"/></g><g id="XMLID_193_"><ellipse id="XMLID_310_" cx="353.06" cy="211.63" fill="#04303e" rx="14.856" ry="14.789"/></g></g><g id="XMLID_350_"><g id="XMLID_192_"><ellipse id="XMLID_309_" cx="106.943" cy="146.921" fill="#07485e" rx="14.856" ry="14.789"/></g><g id="XMLID_191_"><ellipse id="XMLID_307_" cx="206.314" cy="146.921" fill="#07485e" rx="14.856" ry="14.789"/></g><g id="XMLID_190_"><ellipse id="XMLID_301_" cx="305.686" cy="146.921" fill="#04303e" rx="14.856" ry="14.789"/></g><g id="XMLID_188_"><ellipse id="XMLID_300_" cx="405.057" cy="146.921" fill="#04303e" rx="14.856" ry="14.789"/></g></g></g></g><g id="XMLID_347_"><path id="XMLID_331_" d="m403.901 320.862h-147.901v84.227h147.901c8.284 0 15-6.716 15-15v-54.227c0-8.284-6.716-15-15-15z" fill="#2681ff"/></g></g><g id="XMLID_739_"><path id="XMLID_327_" d="m269.866 211.63c0-7.835-6.125-14.23-13.866-14.739v29.479c7.741-.51 13.866-6.904 13.866-14.74z" fill="#04303e"/></g></g><path id="XMLID_264_" d="m403.901 266.702h-295.802c-8.284 0-15 6.716-15 15v54.227c0 8.284 6.716 15 15 15h295.802c8.284 0 15-6.716 15-15v-54.227c0-8.284-6.716-15-15-15z" fill="#90dffa"/><g id="XMLID_333_"><path id="XMLID_345_" d="m403.901 266.702h-147.901v84.227h147.901c8.284 0 15-6.716 15-15v-54.227c0-8.284-6.716-15-15-15z" fill="#60d1f7"/></g><g id="XMLID_329_"><path id="XMLID_267_" d="m61.549 211.982c-33.938 0-61.549 27.516-61.549 61.339 0 23.263 13.395 44.359 33.674 54.676v62.652c0 8.284 6.716 15 15 15h59.425c8.284 0 15-6.716 15-15v-117.328c0-33.823-27.611-61.339-61.55-61.339z" fill="#60d1f7"/><path id="XMLID_297_" d="m450.45 211.982c-33.938 0-61.549 27.517-61.549 61.339v117.328c0 8.284 6.716 15 15 15h59.425c8.284 0 15-6.716 15-15v-62.652c20.279-10.317 33.674-31.413 33.674-54.676 0-33.823-27.611-61.339-61.55-61.339z" fill="#3198e8"/></g><g id="XMLID_325_"><g id="XMLID_225_"><ellipse id="XMLID_323_" cx="61.549" cy="274.307" fill="#07485e" rx="14.856" ry="14.789"/></g><g id="XMLID_196_"><ellipse id="XMLID_321_" cx="450.451" cy="274.307" fill="#04303e" rx="14.856" ry="14.789"/></g></g></g></svg>